<svg width="32" height="32" viewBox="0 0 32 32" fill="none" xmlns="http://www.w3.org/2000/svg">
<path d="M9.25 25C8.63125 25 8.10138 24.7795 7.66038 24.3385C7.21938 23.8975 6.99925 23.368 7 22.75C7 22.1312 7.2205 21.6014 7.6615 21.1604C8.1025 20.7194 8.632 20.4992 9.25 20.5C9.86875 20.5 10.3986 20.7205 10.8396 21.1615C11.2806 21.6025 11.5008 22.132 11.5 22.75C11.5 23.3687 11.2795 23.8986 10.8385 24.3396C10.3975 24.7806 9.868 25.0007 9.25 25ZM16 25C15.3813 25 14.8514 24.7795 14.4104 24.3385C13.9694 23.8975 13.7493 23.368 13.75 22.75C13.75 22.1312 13.9705 21.6014 14.4115 21.1604C14.8525 20.7194 15.382 20.4992 16 20.5C16.6188 20.5 17.1486 20.7205 17.5896 21.1615C18.0306 21.6025 18.2507 22.132 18.25 22.75C18.25 23.3687 18.0295 23.8986 17.5885 24.3396C17.1475 24.7806 16.618 25.0007 16 25ZM22.75 25C22.1312 25 21.6014 24.7795 21.1604 24.3385C20.7194 23.8975 20.4992 23.368 20.5 22.75C20.5 22.1312 20.7205 21.6014 21.1615 21.1604C21.6025 20.7194 22.132 20.4992 22.75 20.5C23.3687 20.5 23.8986 20.7205 24.3396 21.1615C24.7806 21.6025 25.0007 22.132 25 22.75C25 23.3687 24.7795 23.8986 24.3385 24.3396C23.8975 24.7806 23.368 25.0007 22.75 25ZM9.25 18.25C8.63125 18.25 8.10138 18.0295 7.66038 17.5885C7.21938 17.1475 6.99925 16.618 7 16C7 15.3813 7.2205 14.8514 7.6615 14.4104C8.1025 13.9694 8.632 13.7493 9.25 13.75C9.86875 13.75 10.3986 13.9705 10.8396 14.4115C11.2806 14.8525 11.5008 15.382 11.5 16C11.5 16.6188 11.2795 17.1486 10.8385 17.5896C10.3975 18.0306 9.868 18.2507 9.25 18.25ZM16 18.25C15.3813 18.25 14.8514 18.0295 14.4104 17.5885C13.9694 17.1475 13.7493 16.618 13.75 16C13.75 15.3813 13.9705 14.8514 14.4115 14.4104C14.8525 13.9694 15.382 13.7493 16 13.75C16.6188 13.75 17.1486 13.9705 17.5896 14.4115C18.0306 14.8525 18.2507 15.382 18.25 16C18.25 16.6188 18.0295 17.1486 17.5885 17.5896C17.1475 18.0306 16.618 18.2507 16 18.25ZM22.75 18.25C22.1312 18.25 21.6014 18.0295 21.1604 17.5885C20.7194 17.1475 20.4992 16.618 20.5 16C20.5 15.3813 20.7205 14.8514 21.1615 14.4104C21.6025 13.9694 22.132 13.7493 22.75 13.75C23.3687 13.75 23.8986 13.9705 24.3396 14.4115C24.7806 14.8525 25.0007 15.382 25 16C25 16.6188 24.7795 17.1486 24.3385 17.5896C23.8975 18.0306 23.368 18.2507 22.75 18.25ZM9.25 11.5C8.63125 11.5 8.10138 11.2795 7.66038 10.8385C7.21938 10.3975 6.99925 9.868 7 9.25C7 8.63125 7.2205 8.10138 7.6615 7.66038C8.1025 7.21938 8.632 6.99925 9.25 7C9.86875 7 10.3986 7.2205 10.8396 7.6615C11.2806 8.1025 11.5008 8.632 11.5 9.25C11.5 9.86875 11.2795 10.3986 10.8385 10.8396C10.3975 11.2806 9.868 11.5008 9.25 11.5ZM16 11.5C15.3813 11.5 14.8514 11.2795 14.4104 10.8385C13.9694 10.3975 13.7493 9.868 13.75 9.25C13.75 8.63125 13.9705 8.10138 14.4115 7.66038C14.8525 7.21938 15.382 6.99925 16 7C16.6188 7 17.1486 7.2205 17.5896 7.6615C18.0306 8.1025 18.2507 8.632 18.25 9.25C18.25 9.86875 18.0295 10.3986 17.5885 10.8396C17.1475 11.2806 16.618 11.5008 16 11.5ZM22.75 11.5C22.1312 11.5 21.6014 11.2795 21.1604 10.8385C20.7194 10.3975 20.4992 9.868 20.5 9.25C20.5 8.63125 20.7205 8.10138 21.1615 7.66038C21.6025 7.21938 22.132 6.99925 22.75 7C23.3687 7 23.8986 7.2205 24.3396 7.6615C24.7806 8.1025 25.0007 8.632 25 9.25C25 9.86875 24.7795 10.3986 24.3385 10.8396C23.8975 11.2806 23.368 11.5008 22.75 11.5Z" fill="#606367"/>
</svg>
