<svg width="24" height="24" viewBox="0 0 24 24" fill="none" xmlns="http://www.w3.org/2000/svg">
<path d="M6 20C5.45 20 4.979 19.804 4.587 19.412C4.195 19.02 3.99934 18.5493 4 18C4 17.45 4.196 16.979 4.588 16.587C4.98 16.195 5.45067 15.9993 6 16C6.55 16 7.021 16.196 7.413 16.588C7.805 16.98 8.00067 17.4507 8 18C8 18.55 7.804 19.021 7.412 19.413C7.02 19.805 6.54934 20.0007 6 20ZM12 20C11.45 20 10.979 19.804 10.587 19.412C10.195 19.02 9.99934 18.5493 10 18C10 17.45 10.196 16.979 10.588 16.587C10.98 16.195 11.4507 15.9993 12 16C12.55 16 13.021 16.196 13.413 16.588C13.805 16.98 14.0007 17.4507 14 18C14 18.55 13.804 19.021 13.412 19.413C13.02 19.805 12.5493 20.0007 12 20ZM18 20C17.45 20 16.979 19.804 16.587 19.412C16.195 19.02 15.9993 18.5493 16 18C16 17.45 16.196 16.979 16.588 16.587C16.98 16.195 17.4507 15.9993 18 16C18.55 16 19.021 16.196 19.413 16.588C19.805 16.98 20.0007 17.4507 20 18C20 18.55 19.804 19.021 19.412 19.413C19.02 19.805 18.5493 20.0007 18 20ZM6 14C5.45 14 4.979 13.804 4.587 13.412C4.195 13.02 3.99934 12.5493 4 12C4 11.45 4.196 10.979 4.588 10.587C4.98 10.195 5.45067 9.99934 6 10C6.55 10 7.021 10.196 7.413 10.588C7.805 10.98 8.00067 11.4507 8 12C8 12.55 7.804 13.021 7.412 13.413C7.02 13.805 6.54934 14.0007 6 14ZM12 14C11.45 14 10.979 13.804 10.587 13.412C10.195 13.02 9.99934 12.5493 10 12C10 11.45 10.196 10.979 10.588 10.587C10.98 10.195 11.4507 9.99934 12 10C12.55 10 13.021 10.196 13.413 10.588C13.805 10.98 14.0007 11.4507 14 12C14 12.55 13.804 13.021 13.412 13.413C13.02 13.805 12.5493 14.0007 12 14ZM18 14C17.45 14 16.979 13.804 16.587 13.412C16.195 13.02 15.9993 12.5493 16 12C16 11.45 16.196 10.979 16.588 10.587C16.98 10.195 17.4507 9.99934 18 10C18.55 10 19.021 10.196 19.413 10.588C19.805 10.98 20.0007 11.4507 20 12C20 12.55 19.804 13.021 19.412 13.413C19.02 13.805 18.5493 14.0007 18 14ZM6 8C5.45 8 4.979 7.804 4.587 7.412C4.195 7.02 3.99934 6.54934 4 6C4 5.45 4.196 4.979 4.588 4.587C4.98 4.195 5.45067 3.99934 6 4C6.55 4 7.021 4.196 7.413 4.588C7.805 4.98 8.00067 5.45067 8 6C8 6.55 7.804 7.021 7.412 7.413C7.02 7.805 6.54934 8.00067 6 8ZM12 8C11.45 8 10.979 7.804 10.587 7.412C10.195 7.02 9.99934 6.54934 10 6C10 5.45 10.196 4.979 10.588 4.587C10.98 4.195 11.4507 3.99934 12 4C12.55 4 13.021 4.196 13.413 4.588C13.805 4.98 14.0007 5.45067 14 6C14 6.55 13.804 7.021 13.412 7.413C13.02 7.805 12.5493 8.00067 12 8ZM18 8C17.45 8 16.979 7.804 16.587 7.412C16.195 7.02 15.9993 6.54934 16 6C16 5.45 16.196 4.979 16.588 4.587C16.98 4.195 17.4507 3.99934 18 4C18.55 4 19.021 4.196 19.413 4.588C19.805 4.98 20.0007 5.45067 20 6C20 6.55 19.804 7.021 19.412 7.413C19.02 7.805 18.5493 8.00067 18 8Z" fill="#606367"/>
</svg>
