<svg width="24" height="24" viewBox="0 0 32 32" fill="none" xmlns="http://www.w3.org/2000/svg">
<path d="M20.6666 18.6667H19.6133L19.24 18.3067C20.0732 17.3386 20.6822 16.1984 21.0234 14.9675C21.3645 13.7366 21.4294 12.4455 21.2133 11.1867C20.5866 7.48 17.4933 4.52 13.76 4.06667C12.4475 3.90062 11.1144 4.03703 9.86267 4.46545C8.61098 4.89388 7.47389 5.60296 6.53841 6.53844C5.60292 7.47393 4.89384 8.61102 4.46542 9.8627C4.037 11.1144 3.90059 12.4475 4.06663 13.76C4.51997 17.4933 7.47997 20.5867 11.1866 21.2133C12.4455 21.4294 13.7366 21.3645 14.9675 21.0234C16.1983 20.6823 17.3386 20.0733 18.3066 19.24L18.6666 19.6133V20.6667L24.3333 26.3333C24.88 26.88 25.7733 26.88 26.32 26.3333C26.8666 25.7867 26.8666 24.8933 26.32 24.3467L20.6666 18.6667ZM12.6666 18.6667C9.34663 18.6667 6.66663 15.9867 6.66663 12.6667C6.66663 9.34667 9.34663 6.66667 12.6666 6.66667C15.9866 6.66667 18.6666 9.34667 18.6666 12.6667C18.6666 15.9867 15.9866 18.6667 12.6666 18.6667Z" fill="#606367"/>
</svg>
